TITLE ""
FILE "Disc6Track49.mp3" MP3
  TRACK 01 AUDIO
    TITLE "Disc6Track49_01"
    INDEX 01 00:00:00
  TRACK 02 AUDIO
    TITLE "Disc6Track49_02"
    INDEX 01 00:01:06
  TRACK 03 AUDIO
    TITLE "Disc6Track49_03"
    INDEX 01 00:03:46
  TRACK 04 AUDIO
    TITLE "Disc6Track49_04"
    INDEX 01 00:04:65
  TRACK 05 AUDIO
    TITLE "Disc6Track49_05"
    INDEX 01 00:08:67
  TRACK 06 AUDIO
    TITLE "Disc6Track49_06"
    INDEX 01 00:09:23
  TRACK 07 AUDIO
    TITLE "Disc6Track49_07"
    INDEX 01 00:10:36
  TRACK 08 AUDIO
    TITLE "Disc6Track49_08"
    INDEX 01 00:12:10
  TRACK 09 AUDIO
    TITLE "Disc6Track49_09"
    INDEX 01 00:13:23
  TRACK 10 AUDIO
    TITLE "Disc6Track49_10"
    INDEX 01 00:16:43
  TRACK 11 AUDIO
    TITLE "Disc6Track49_11"
    INDEX 01 00:16:74
  TRACK 12 AUDIO
    TITLE "Disc6Track49_12"
    INDEX 01 00:18:16
  TRACK 13 AUDIO
    TITLE "Disc6Track49_13"
    INDEX 01 00:21:12
  TRACK 14 AUDIO
    TITLE "Disc6Track49_14"
    INDEX 01 00:22:28
  TRACK 15 AUDIO
    TITLE "Disc6Track49_15"
    INDEX 01 00:26:53
  TRACK 16 AUDIO
    TITLE "Disc6Track49_16"
    INDEX 01 00:27:07
  TRACK 17 AUDIO
    TITLE "Disc6Track49_17"
    INDEX 01 00:28:20
  TRACK 18 AUDIO
    TITLE "Disc6Track49_18"
    INDEX 01 00:31:19
  TRACK 19 AUDIO
    TITLE "Disc6Track49_19"
    INDEX 01 00:32:28
  TRACK 20 AUDIO
    TITLE "Disc6Track49_20"
    INDEX 01 00:36:30
  TRACK 21 AUDIO
    TITLE "Disc6Track49_21"
    INDEX 01 00:36:61
  TRACK 22 AUDIO
    TITLE "Disc6Track49_22"
    INDEX 01 00:38:11
  TRACK 23 AUDIO
    TITLE "Disc6Track49_23"
    INDEX 01 00:40:39
  TRACK 24 AUDIO
    TITLE "Disc6Track49_24"
    INDEX 01 00:41:66
  TRACK 25 AUDIO
    TITLE "Disc6Track49_25"
    INDEX 01 00:42:24
  TRACK 26 AUDIO
    TITLE "Disc6Track49_26"
    INDEX 01 00:43:47
  TRACK 27 AUDIO
    TITLE "Disc6Track49_27"
    INDEX 01 00:45:21
  TRACK 28 AUDIO
    TITLE "Disc6Track49_28"
    INDEX 01 00:46:44
  TRACK 29 AUDIO
    TITLE "Disc6Track49_29"
    INDEX 01 00:52:23
  TRACK 30 AUDIO
    TITLE "Disc6Track49_30"
    INDEX 01 00:52:52
  TRACK 31 AUDIO
    TITLE "Disc6Track49_31"
    INDEX 01 00:53:67
  TRACK 32 AUDIO
    TITLE "Disc6Track49_32"
    INDEX 01 00:55:41
  TRACK 33 AUDIO
    TITLE "Disc6Track49_33"
    INDEX 01 00:56:54
  TRACK 34 AUDIO
    TITLE "Disc6Track49_34"
    INDEX 01 01:00:34
  TRACK 35 AUDIO
    TITLE "Disc6Track49_35"
    INDEX 01 01:00:65
  TRACK 36 AUDIO
    TITLE "Disc6Track49_36"
    INDEX 01 01:02:09
  TRACK 37 AUDIO
    TITLE "Disc6Track49_37"
    INDEX 01 01:03:13
  TRACK 38 AUDIO
    TITLE "Disc6Track49_38"
    INDEX 01 01:04:34
  TRACK 39 AUDIO
    TITLE "Disc6Track49_39"
    INDEX 01 01:04:73
  TRACK 40 AUDIO
    TITLE "Disc6Track49_40"
    INDEX 01 01:06:25
  TRACK 41 AUDIO
    TITLE "Disc6Track49_41"
    INDEX 01 01:07:73
  TRACK 42 AUDIO
    TITLE "Disc6Track49_42"
    INDEX 01 01:09:21
  TRACK 43 AUDIO
    TITLE "Disc6Track49_43"
    INDEX 01 01:13:11
  TRACK 44 AUDIO
    TITLE "Disc6Track49_44"
    INDEX 01 01:13:41
  TRACK 45 AUDIO
    TITLE "Disc6Track49_45"
    INDEX 01 01:14:54
  TRACK 46 AUDIO
    TITLE "Disc6Track49_46"
    INDEX 01 01:16:31
  TRACK 47 AUDIO
    TITLE "Disc6Track49_47"
    INDEX 01 01:17:48
